<?xml version="1.0" encoding="UTF-8" standalone="no"?>
<!DOCTYPE svg PUBLIC "-//W3C//DTD SVG 1.1//EN"
 "http://www.w3.org/Graphics/SVG/1.1/DTD/svg11.dtd">
<!-- Generated by graphviz version 2.38.0 (20140413.2041)
 -->
<!-- Title: %3 Pages: 1 -->
<svg width="879pt" height="231pt"
 viewBox="0.00 0.00 878.59 231.00" xmlns="http://www.w3.org/2000/svg" xmlns:xlink="http://www.w3.org/1999/xlink">
<g id="graph0" class="graph" transform="scale(1 1) rotate(0) translate(4 227)">
<title>%3</title>
<polygon fill="#3f3f3f" stroke="none" points="-4,4 -4,-227 874.587,-227 874.587,4 -4,4"/>
<text text-anchor="middle" x="435.293" y="-9.2" font-family="Times,serif" font-size="16.00" fill="white">Network Map</text>
<!-- SW1 -->
<g id="node1" class="node"><title>SW1</title>
<polygon fill="#006699" stroke="#006699" points="286.587,-99 194.587,-99 194.587,-26 286.587,-26 286.587,-99"/>
<text text-anchor="middle" x="240.587" y="-58.8" font-family="Helvetica,sans-Serif" font-size="14.00" fill="white">SW1</text>
</g>
<!-- R3 -->
<g id="node4" class="node"><title>R3</title>
<polygon fill="#006699" stroke="#006699" points="95.0865,-223 18.0865,-223 18.0865,-150 95.0865,-150 95.0865,-223"/>
<text text-anchor="middle" x="56.5865" y="-182.8" font-family="Helvetica,sans-Serif" font-size="14.00" fill="white">R3</text>
</g>
<!-- SW1&#45;&#45;R3 -->
<g id="edge6" class="edge"><title>SW1&#45;&#45;R3</title>
<path fill="none" stroke="green" stroke-dasharray="5,2" d="M194.437,-66.0313C156.42,-70.6235 103.852,-83.1667 72.5865,-117 64.3809,-125.879 60.129,-138.135 58,-149.829"/>
<text text-anchor="middle" x="122.587" y="-120.8" font-family="Courier,monospace" font-size="14.00" fill="white"> &#160;&#160;&#160;&#160;&#160;&#160;&#160;&#160;&#160;&#160;&#160;</text>
<text text-anchor="middle" x="29" y="-138.629" font-family="Courier,monospace" font-size="14.00" fill="white">Eth 0/0</text>
<text text-anchor="middle" x="165.437" y="-54.8313" font-family="Courier,monospace" font-size="14.00" fill="white">Eth 0/3</text>
</g>
<!-- R2 -->
<g id="node5" class="node"><title>R2</title>
<polygon fill="#006699" stroke="#006699" points="710.087,-223 633.087,-223 633.087,-150 710.087,-150 710.087,-223"/>
<text text-anchor="middle" x="671.587" y="-182.8" font-family="Helvetica,sans-Serif" font-size="14.00" fill="white">R2</text>
</g>
<!-- SW1&#45;&#45;R2 -->
<g id="edge5" class="edge"><title>SW1&#45;&#45;R2</title>
<path fill="none" stroke="green" stroke-dasharray="5,2" d="M286.601,-73.9773C320.248,-82.7218 366.324,-96.9945 403.587,-117 413.066,-122.089 412.852,-127.418 422.587,-132 459.491,-149.372 572.535,-169.493 632.802,-179.377"/>
<text text-anchor="middle" x="472.587" y="-120.8" font-family="Courier,monospace" font-size="14.00" fill="white"> &#160;&#160;&#160;&#160;&#160;&#160;&#160;&#160;&#160;&#160;&#160;</text>
<text text-anchor="middle" x="603.802" y="-168.177" font-family="Courier,monospace" font-size="14.00" fill="white">Eth 0/0</text>
<text text-anchor="middle" x="315.601" y="-62.7773" font-family="Courier,monospace" font-size="14.00" fill="white">Eth 0/2</text>
</g>
<!-- R1 -->
<g id="node6" class="node"><title>R1</title>
<polygon fill="#006699" stroke="#006699" points="218.087,-223 141.087,-223 141.087,-150 218.087,-150 218.087,-223"/>
<text text-anchor="middle" x="179.587" y="-182.8" font-family="Helvetica,sans-Serif" font-size="14.00" fill="white">R1</text>
</g>
<!-- SW1&#45;&#45;R1 -->
<g id="edge4" class="edge"><title>SW1&#45;&#45;R1</title>
<path fill="none" stroke="green" stroke-dasharray="5,2" d="M194.468,-96.793C188.87,-102.865 183.951,-109.638 180.587,-117 175.99,-127.061 174.601,-138.852 174.695,-149.788"/>
<text text-anchor="middle" x="230.587" y="-120.8" font-family="Courier,monospace" font-size="14.00" fill="white"> &#160;&#160;&#160;&#160;&#160;&#160;&#160;&#160;&#160;&#160;&#160;</text>
<text text-anchor="middle" x="145.695" y="-138.588" font-family="Courier,monospace" font-size="14.00" fill="white">Eth 0/0</text>
<text text-anchor="middle" x="165.468" y="-85.593" font-family="Courier,monospace" font-size="14.00" fill="white">Eth 0/1</text>
</g>
<!-- R4 -->
<g id="node7" class="node"><title>R4</title>
<polygon fill="#006699" stroke="#006699" points="464.087,-223 387.087,-223 387.087,-150 464.087,-150 464.087,-223"/>
<text text-anchor="middle" x="425.587" y="-182.8" font-family="Helvetica,sans-Serif" font-size="14.00" fill="white">R4</text>
</g>
<!-- SW1&#45;&#45;R4 -->
<g id="edge7" class="edge"><title>SW1&#45;&#45;R4</title>
<path fill="none" stroke="green" stroke-dasharray="5,2" d="M268.234,-99.0535C278.449,-110.601 290.702,-122.797 303.587,-132 329.087,-150.214 361.772,-164.135 386.892,-173.205"/>
<text text-anchor="middle" x="353.587" y="-120.8" font-family="Courier,monospace" font-size="14.00" fill="white"> &#160;&#160;&#160;&#160;&#160;&#160;&#160;&#160;&#160;&#160;&#160;</text>
<text text-anchor="middle" x="357.892" y="-162.005" font-family="Courier,monospace" font-size="14.00" fill="white">Eth 0/0</text>
<text text-anchor="middle" x="239.234" y="-102.853" font-family="Courier,monospace" font-size="14.00" fill="white">Eth 0/4</text>
</g>
<!-- R5 -->
<g id="node2" class="node"><title>R5</title>
<polygon fill="#006699" stroke="#006699" points="648.087,-99 571.087,-99 571.087,-26 648.087,-26 648.087,-99"/>
<text text-anchor="middle" x="609.587" y="-58.8" font-family="Helvetica,sans-Serif" font-size="14.00" fill="white">R5</text>
</g>
<!-- R5&#45;&#45;R2 -->
<g id="edge1" class="edge"><title>R5&#45;&#45;R2</title>
<path fill="none" stroke="green" stroke-dasharray="5,2" d="M638.822,-99.2785C642.762,-105.007 646.502,-111.023 649.587,-117 654.856,-127.212 659.179,-138.931 662.556,-149.755"/>
<text text-anchor="middle" x="705.587" y="-120.8" font-family="Courier,monospace" font-size="14.00" fill="white"> &#160;&#160;&#160;&#160;&#160;&#160;&#160;&#160;&#160;&#160;&#160;</text>
<text text-anchor="middle" x="633.556" y="-138.555" font-family="Courier,monospace" font-size="14.00" fill="white">Eth 0/1</text>
<text text-anchor="middle" x="609.822" y="-103.079" font-family="Courier,monospace" font-size="14.00" fill="white">Eth 0/0</text>
</g>
<!-- R5&#45;&#45;R4 -->
<g id="edge2" class="edge"><title>R5&#45;&#45;R4</title>
<path fill="none" stroke="green" stroke-dasharray="5,2" d="M570.901,-96.0251C551.665,-112.088 531.482,-128.733 526.587,-132 506.947,-145.109 483.742,-157.591 464.53,-167.196"/>
<text text-anchor="middle" x="594.587" y="-120.8" font-family="Courier,monospace" font-size="14.00" fill="white"> &#160;&#160;&#160;&#160;&#160;&#160;&#160;&#160;&#160;&#160;&#160;</text>
<text text-anchor="middle" x="493.53" y="-155.996" font-family="Courier,monospace" font-size="14.00" fill="white">Eth 0/1</text>
<text text-anchor="middle" x="541.901" y="-84.8251" font-family="Courier,monospace" font-size="14.00" fill="white">Eth 0/1</text>
</g>
<!-- R6 -->
<g id="node3" class="node"><title>R6</title>
<polygon fill="#006699" stroke="#006699" points="833.087,-99 756.087,-99 756.087,-26 833.087,-26 833.087,-99"/>
<text text-anchor="middle" x="794.587" y="-58.8" font-family="Helvetica,sans-Serif" font-size="14.00" fill="white">R6</text>
</g>
<!-- R6&#45;&#45;R2 -->
<g id="edge3" class="edge"><title>R6&#45;&#45;R2</title>
<path fill="none" stroke="green" stroke-dasharray="5,2" d="M780.885,-99.3174C775.414,-110.624 768.311,-122.606 759.587,-132 745.838,-146.804 727.08,-158.963 710.415,-167.927"/>
<text text-anchor="middle" x="820.587" y="-120.8" font-family="Courier,monospace" font-size="14.00" fill="white"> &#160;&#160;&#160;&#160;&#160;&#160;&#160;&#160;&#160;&#160;&#160;</text>
<text text-anchor="middle" x="739.415" y="-156.727" font-family="Courier,monospace" font-size="14.00" fill="white">Eth 0/2</text>
<text text-anchor="middle" x="751.885" y="-103.117" font-family="Courier,monospace" font-size="14.00" fill="white">Eth 0/1</text>
</g>
</g>
</svg>
